<svg xmlns="http://www.w3.org/2000/svg" viewBox="0 0 61.62 80.3"><defs><style>.cls-1{fill:#5890af;}.cls-2{fill:#149992;}.cls-3{fill:#52ccc3;}.cls-4{fill:#2d506d;}</style></defs><title>Logo</title><g id="Layer_2" data-name="Layer 2"><g id="logo"><polygon class="cls-1" points="59.36 26.81 13.14 0.03 13.12 0 13.12 0.02 9.93 0.02 9.93 0.02 2.01 4.53 2.01 4.53 6.4 7.07 11.52 4.16 55.02 29.33 59.36 26.81"/><polygon class="cls-2" points="23.24 52.79 23.24 47.73 36.05 40.31 40.43 42.84 23.24 52.79"/><path class="cls-3" d="M47.72,36.09l2.14-3.77L2,4.53H2L0,8.43V72.64a33.5,33.5,0,0,0,1.41,3.08l7.93,4.55.06,0,4.25-.06-4.31-5-5-2.84V11Z"/><path class="cls-3" d="M12.15,21.41H10.3l3.45,6h0v0l-.23-.13h0l.16.09.07,0h0L45.61,45.82l2.18-1.26,0-2.55Z"/><polygon class="cls-4" points="61.61 50.64 59.91 53.47 59.92 53.47 59.91 53.47 13.72 80.2 13.66 80.24 9.35 75.21 9.38 23.01 10.3 21.41 13.78 27.46 13.73 75.14 57.23 49.96 57.06 33.21 52.11 36.08 52.18 45.17 50.62 48.01 21.64 64.7 19.79 64.7 19.78 64.7 19.78 64.7 18.86 63.1 18.86 30.39 23.24 32.92 23.24 58.72 47.79 44.56 47.79 44.56 47.72 36.09 47.72 36.09 49.86 32.32 59.36 26.81 61.59 30.59 61.59 30.59 61.61 50.63 61.62 50.63 61.61 50.64"/></g></g></svg>